{
  "accessors": [
    {
      "bufferView": 2,
      "componentType": 5126,
      "count": 28102,
      "max": [
        5.983500003814697,
        3.1261000633239746,
        17.83930015563965
      ],
      "min": [
        -5.983500003814697,
        -2.6266000270843506,
        -0.04439999908208847
      ],
      "type": "VEC3"
    },
    {
      "bufferView": 2,
      "byteOffset": 337224,
      "componentType": 5126,
      "count": 28102,
      "max": [
        0.9999998807907104,
        0.9999825954437256,
        0.9999998807907104
      ],
      "min": [
        -0.9999998807907104,
        -0.9999964237213135,
        -1.0
      ],
      "type": "VEC3"
    },
    {
      "bufferView": 1,
      "componentType": 5126,
      "count": 28102,
      "max": [
        0.9980000257492065,
        -0.0032999999821186066
      ],
      "min": [
        0.005799999926239252,
        -0.9975000023841858
      ],
      "type": "VEC2"
    },
    {
      "bufferView": 0,
      "componentType": 5125,
      "count": 148536,
      "type": "SCALAR"
    },
    {
      "bufferView": 2,
      "byteOffset": 674448,
      "componentType": 5126,
      "count": 2919,
      "max": [
        1.0224000215530396,
        -0.01979999989271164,
        17.450599670410156
      ],
      "min": [
        -1.0224000215530396,
        -1.4815000295639038,
        15.094499588012695
      ],
      "type": "VEC3"
    },
    {
      "bufferView": 2,
      "byteOffset": 709476,
      "componentType": 5126,
      "count": 2919,
      "max": [
        0.9992533326148987,
        0.9998948574066162,
        0.9999510049819946
      ],
      "min": [
        -0.9992533326148987,
        -0.9999960660934448,
        -0.9998059868812561
      ],
      "type": "VEC3"
    },
    {
      "bufferView": 1,
      "byteOffset": 224816,
      "componentType": 5126,
      "count": 2919,
      "max": [
        0.965399980545044,
        -0.004800000227987766
      ],
      "min": [
        -0.006200000178068876,
        -0.9987000226974487
      ],
      "type": "VEC2"
    },
    {
      "bufferView": 0,
      "byteOffset": 594144,
      "componentType": 5125,
      "count": 9753,
      "type": "SCALAR"
    },
    {
      "bufferView": 2,
      "byteOffset": 744504,
      "componentType": 5126,
      "count": 1589,
      "max": [
        1.7355999946594238,
        1.595900058746338,
        18.084299087524414
      ],
      "min": [
        -1.5867999792099,
        -1.7135000228881836,
        13.873299598693848
      ],
      "type": "VEC3"
    },
    {
      "bufferView": 2,
      "byteOffset": 763572,
      "componentType": 5126,
      "count": 1589,
      "max": [
        0.9999182224273682,
        0.9983752369880676,
        0.9937870502471924
      ],
      "min": [
        -0.9977391958236694,
        -0.994555652141571,
        -0.9988430738449097
      ],
      "type": "VEC3"
    },
    {
      "bufferView": 1,
      "byteOffset": 248168,
      "componentType": 5126,
      "count": 1589,
      "max": [
        0.9908999800682068,
        -0.005200000014156103
      ],
      "min": [
        0.003000000026077032,
        -0.9965999722480774
      ],
      "type": "VEC2"
    },
    {
      "bufferView": 0,
      "byteOffset": 633156,
      "componentType": 5125,
      "count": 6915,
      "type": "SCALAR"
    }
  ],
  "asset": {
    "extras": {
      "author": "Vanilla snow (https://sketchfab.com/salamiyummy)",
      "license": "CC-BY-4.0 (http://creativecommons.org/licenses/by/4.0/)",
      "source": "https://sketchfab.com/3d-models/lumine-from-genshin-impact-ba0b5486c66243ccabf530f749945dfb",
      "title": "Lumine from genshin impact"
    },
    "generator": "Sketchfab-15.31.0",
    "version": "2.0"
  },
  "bufferViews": [
    {
      "buffer": 0,
      "byteLength": 660816,
      "name": "floatBufferViews",
      "target": 34963
    },
    {
      "buffer": 0,
      "byteLength": 260880,
      "byteOffset": 660816,
      "byteStride": 8,
      "name": "floatBufferViews",
      "target": 34962
    },
    {
      "buffer": 0,
      "byteLength": 782640,
      "byteOffset": 921696,
      "byteStride": 12,
      "name": "floatBufferViews",
      "target": 34962
    }
  ],
  "buffers": [
    {
      "byteLength": 1704336,
      "uri": "scene.bin"
    }
  ],
  "extensionsUsed": [
    "KHR_materials_unlit"
  ],
  "images": [
    {
      "uri": "textures/LumineMaterial__81_baseColor.png"
    },
    {
      "uri": "textures/LumineMaterial__82_baseColor.png"
    },
    {
      "uri": "textures/LumineMaterial__83_baseColor.png"
    }
  ],
  "materials": [
    {
      "doubleSided": true,
      "emissiveTexture": {
        "index": 0
      },
      "extensions": {
        "KHR_materials_unlit": {}
      },
      "name": "LumineMaterial__81",
      "pbrMetallicRoughness": {
        "baseColorTexture": {
          "index": 0
        },
        "metallicFactor": 0.0
      }
    },
    {
      "doubleSided": true,
      "emissiveTexture": {
        "index": 1
      },
      "extensions": {
        "KHR_materials_unlit": {}
      },
      "name": "LumineMaterial__82",
      "pbrMetallicRoughness": {
        "baseColorTexture": {
          "index": 1
        },
        "metallicFactor": 0.0
      }
    },
    {
      "doubleSided": true,
      "emissiveTexture": {
        "index": 2
      },
      "extensions": {
        "KHR_materials_unlit": {}
      },
      "name": "LumineMaterial__83",
      "pbrMetallicRoughness": {
        "baseColorTexture": {
          "index": 2
        },
        "metallicFactor": 0.0
      }
    }
  ],
  "meshes": [
    {
      "name": "Object_0",
      "primitives": [
        {
          "attributes": {
            "NORMAL": 1,
            "POSITION": 0,
            "TEXCOORD_0": 2
          },
          "indices": 3,
          "material": 0,
          "mode": 4
        }
      ]
    },
    {
      "name": "Object_1",
      "primitives": [
        {
          "attributes": {
            "NORMAL": 5,
            "POSITION": 4,
            "TEXCOORD_0": 6
          },
          "indices": 7,
          "material": 1,
          "mode": 4
        }
      ]
    },
    {
      "name": "Object_2",
      "primitives": [
        {
          "attributes": {
            "NORMAL": 9,
            "POSITION": 8,
            "TEXCOORD_0": 10
          },
          "indices": 11,
          "material": 2,
          "mode": 4
        }
      ]
    }
  ],
  "nodes": [
    {
      "children": [
        1
      ],
      "matrix": [
        1.0,
        0.0,
        0.0,
        0.0,
        0.0,
        2.220446049250313e-16,
        -1.0,
        0.0,
        0.0,
        1.0,
        2.220446049250313e-16,
        0.0,
        0.0,
        0.0,
        0.0,
        1.0
      ],
      "name": "Sketchfab_model"
    },
    {
      "children": [
        2,
        3,
        4
      ],
      "name": "Lumine.obj.cleaner.materialmerger.gles"
    },
    {
      "mesh": 0,
      "name": "Object_2"
    },
    {
      "mesh": 1,
      "name": "Object_3"
    },
    {
      "mesh": 2,
      "name": "Object_4"
    }
  ],
  "samplers": [
    {
      "magFilter": 9729,
      "minFilter": 9987,
      "wrapS": 10497,
      "wrapT": 10497
    }
  ],
  "scene": 0,
  "scenes": [
    {
      "name": "Sketchfab_Scene",
      "nodes": [
        0
      ]
    }
  ],
  "textures": [
    {
      "sampler": 0,
      "source": 0
    },
    {
      "sampler": 0,
      "source": 1
    },
    {
      "sampler": 0,
      "source": 2
    }
  ]
}
